<svg id="visual" viewBox="0 0 375 667" width="375" height="667" xmlns="http://www.w3.org/2000/svg" xmlns:xlink="http://www.w3.org/1999/xlink" version="1.1"><path d="M0 134L9 127C18 120 36 106 53.8 103.3C71.7 100.7 89.3 109.3 107.2 121.7C125 134 143 150 160.8 160.2C178.7 170.3 196.3 174.7 214.2 163.2C232 151.7 250 124.3 267.8 119.3C285.7 114.3 303.3 131.7 321.2 145.2C339 158.7 357 168.3 366 173.2L375 178L375 0L366 0C357 0 339 0 321.2 0C303.3 0 285.7 0 267.8 0C250 0 232 0 214.2 0C196.3 0 178.7 0 160.8 0C143 0 125 0 107.2 0C89.3 0 71.7 0 53.8 0C36 0 18 0 9 0L0 0Z" fill="#50fa7b" stroke-linecap="round" stroke-linejoin="miter"></path></svg>