<svg id="visual" viewBox="0 0 1440 1080" width="1440" height="1080" xmlns="http://www.w3.org/2000/svg" xmlns:xlink="http://www.w3.org/1999/xlink" version="1.1"><path d="M0 218L34.3 206.7C68.7 195.3 137.3 172.7 205.8 168.2C274.3 163.7 342.7 177.3 411.2 197.3C479.7 217.3 548.3 243.7 617 260.2C685.7 276.7 754.3 283.3 823 264.7C891.7 246 960.3 202 1028.8 194C1097.3 186 1165.7 214 1234.2 235.7C1302.7 257.3 1371.3 272.7 1405.7 280.3L1440 288L1440 0L1405.7 0C1371.3 0 1302.7 0 1234.2 0C1165.7 0 1097.3 0 1028.8 0C960.3 0 891.7 0 823 0C754.3 0 685.7 0 617 0C548.3 0 479.7 0 411.2 0C342.7 0 274.3 0 205.8 0C137.3 0 68.7 0 34.3 0L0 0Z" fill="#50fa7b" stroke-linecap="round" stroke-linejoin="miter"></path></svg>