<svg id="visual" viewBox="0 0 375 667" width="375" height="667" xmlns="http://www.w3.org/2000/svg" xmlns:xlink="http://www.w3.org/1999/xlink" version="1.1"><path d="M0 25L9 28.3C18 31.7 36 38.3 53.8 40.5C71.7 42.7 89.3 40.3 107.2 37.3C125 34.3 143 30.7 160.8 28.8C178.7 27 196.3 27 214.2 27.2C232 27.3 250 27.7 267.8 31C285.7 34.3 303.3 40.7 321.2 40.8C339 41 357 35 366 32L375 29L375 0L366 0C357 0 339 0 321.2 0C303.3 0 285.7 0 267.8 0C250 0 232 0 214.2 0C196.3 0 178.7 0 160.8 0C143 0 125 0 107.2 0C89.3 0 71.7 0 53.8 0C36 0 18 0 9 0L0 0Z" fill="#8be9fd" stroke-linecap="round" stroke-linejoin="miter"></path></svg>