<svg id="visual" viewBox="0 0 1440 1080" width="1440" height="1080" xmlns="http://www.w3.org/2000/svg" xmlns:xlink="http://www.w3.org/1999/xlink" version="1.1"><path d="M0 42L34.3 47.3C68.7 52.7 137.3 63.3 205.8 66.8C274.3 70.3 342.7 66.7 411.2 61.7C479.7 56.7 548.3 50.3 617 47.3C685.7 44.3 754.3 44.7 823 45.2C891.7 45.7 960.3 46.3 1028.8 51.7C1097.3 57 1165.7 67 1234.2 67C1302.7 67 1371.3 57 1405.7 52L1440 47L1440 0L1405.7 0C1371.3 0 1302.7 0 1234.2 0C1165.7 0 1097.3 0 1028.8 0C960.3 0 891.7 0 823 0C754.3 0 685.7 0 617 0C548.3 0 479.7 0 411.2 0C342.7 0 274.3 0 205.8 0C137.3 0 68.7 0 34.3 0L0 0Z" fill="#8be9fd" stroke-linecap="round" stroke-linejoin="miter"></path></svg>