<svg id="visual" viewBox="0 0 1440 1080" width="1440" height="1080" xmlns="http://www.w3.org/2000/svg" xmlns:xlink="http://www.w3.org/1999/xlink" version="1.1"><path d="M0 63L34.3 64.2C68.7 65.3 137.3 67.7 205.8 72C274.3 76.3 342.7 82.7 411.2 80.2C479.7 77.7 548.3 66.3 617 64.8C685.7 63.3 754.3 71.7 823 72.7C891.7 73.7 960.3 67.3 1028.8 65.2C1097.3 63 1165.7 65 1234.2 67C1302.7 69 1371.3 71 1405.7 72L1440 73L1440 0L1405.7 0C1371.3 0 1302.7 0 1234.2 0C1165.7 0 1097.3 0 1028.8 0C960.3 0 891.7 0 823 0C754.3 0 685.7 0 617 0C548.3 0 479.7 0 411.2 0C342.7 0 274.3 0 205.8 0C137.3 0 68.7 0 34.3 0L0 0Z" fill="#8be9fd"></path><path d="M0 54L34.3 56C68.7 58 137.3 62 205.8 60.7C274.3 59.3 342.7 52.7 411.2 52.5C479.7 52.3 548.3 58.7 617 58.5C685.7 58.3 754.3 51.7 823 51.7C891.7 51.7 960.3 58.3 1028.8 58.5C1097.3 58.7 1165.7 52.3 1234.2 52.8C1302.7 53.3 1371.3 60.7 1405.7 64.3L1440 68L1440 0L1405.7 0C1371.3 0 1302.7 0 1234.2 0C1165.7 0 1097.3 0 1028.8 0C960.3 0 891.7 0 823 0C754.3 0 685.7 0 617 0C548.3 0 479.7 0 411.2 0C342.7 0 274.3 0 205.8 0C137.3 0 68.7 0 34.3 0L0 0Z" fill="#77cbec"></path><path d="M0 50L34.3 49.7C68.7 49.3 137.3 48.7 205.8 49.8C274.3 51 342.7 54 411.2 54.3C479.7 54.7 548.3 52.3 617 48.7C685.7 45 754.3 40 823 37.2C891.7 34.3 960.3 33.7 1028.8 37C1097.3 40.3 1165.7 47.7 1234.2 50.5C1302.7 53.3 1371.3 51.7 1405.7 50.8L1440 50L1440 0L1405.7 0C1371.3 0 1302.7 0 1234.2 0C1165.7 0 1097.3 0 1028.8 0C960.3 0 891.7 0 823 0C754.3 0 685.7 0 617 0C548.3 0 479.7 0 411.2 0C342.7 0 274.3 0 205.8 0C137.3 0 68.7 0 34.3 0L0 0Z" fill="#6badd8"></path><path d="M0 41L34.3 38.5C68.7 36 137.3 31 205.8 30C274.3 29 342.7 32 411.2 33.5C479.7 35 548.3 35 617 34.7C685.7 34.3 754.3 33.7 823 31.5C891.7 29.3 960.3 25.7 1028.8 24.7C1097.3 23.7 1165.7 25.3 1234.2 26.3C1302.7 27.3 1371.3 27.7 1405.7 27.8L1440 28L1440 0L1405.7 0C1371.3 0 1302.7 0 1234.2 0C1165.7 0 1097.3 0 1028.8 0C960.3 0 891.7 0 823 0C754.3 0 685.7 0 617 0C548.3 0 479.7 0 411.2 0C342.7 0 274.3 0 205.8 0C137.3 0 68.7 0 34.3 0L0 0Z" fill="#658fc0"></path><path d="M0 16L34.3 16.8C68.7 17.7 137.3 19.3 205.8 19.5C274.3 19.7 342.7 18.3 411.2 17.5C479.7 16.7 548.3 16.3 617 17.5C685.7 18.7 754.3 21.3 823 20.2C891.7 19 960.3 14 1028.8 11.5C1097.3 9 1165.7 9 1234.2 8.8C1302.7 8.7 1371.3 8.3 1405.7 8.2L1440 8L1440 0L1405.7 0C1371.3 0 1302.7 0 1234.2 0C1165.7 0 1097.3 0 1028.8 0C960.3 0 891.7 0 823 0C754.3 0 685.7 0 617 0C548.3 0 479.7 0 411.2 0C342.7 0 274.3 0 205.8 0C137.3 0 68.7 0 34.3 0L0 0Z" fill="#6272a4"></path></svg>