<svg id="visual" viewBox="0 0 375 667" width="375" height="667" xmlns="http://www.w3.org/2000/svg" xmlns:xlink="http://www.w3.org/1999/xlink" version="1.1"><path d="M0 39L9 39.7C18 40.3 36 41.7 53.8 44.2C71.7 46.7 89.3 50.3 107.2 48.8C125 47.3 143 40.7 160.8 39.8C178.7 39 196.3 44 214.2 44.5C232 45 250 41 267.8 39.7C285.7 38.3 303.3 39.7 321.2 40.8C339 42 357 43 366 43.5L375 44L375 0L366 0C357 0 339 0 321.2 0C303.3 0 285.7 0 267.8 0C250 0 232 0 214.2 0C196.3 0 178.7 0 160.8 0C143 0 125 0 107.2 0C89.3 0 71.7 0 53.8 0C36 0 18 0 9 0L0 0Z" fill="#8be9fd"></path><path d="M0 33L9 34.2C18 35.3 36 37.7 53.8 36.8C71.7 36 89.3 32 107.2 32C125 32 143 36 160.8 36C178.7 36 196.3 32 214.2 32C232 32 250 36 267.8 36C285.7 36 303.3 32 321.2 32.3C339 32.7 357 37.3 366 39.7L375 42L375 0L366 0C357 0 339 0 321.2 0C303.3 0 285.7 0 267.8 0C250 0 232 0 214.2 0C196.3 0 178.7 0 160.8 0C143 0 125 0 107.2 0C89.3 0 71.7 0 53.8 0C36 0 18 0 9 0L0 0Z" fill="#77cbec"></path><path d="M0 30L9 29.8C18 29.7 36 29.3 53.8 30.2C71.7 31 89.3 33 107.2 33.2C125 33.3 143 31.7 160.8 29.3C178.7 27 196.3 24 214.2 22.3C232 20.7 250 20.3 267.8 22.3C285.7 24.3 303.3 28.7 321.2 30.3C339 32 357 31 366 30.5L375 30L375 0L366 0C357 0 339 0 321.2 0C303.3 0 285.7 0 267.8 0C250 0 232 0 214.2 0C196.3 0 178.7 0 160.8 0C143 0 125 0 107.2 0C89.3 0 71.7 0 53.8 0C36 0 18 0 9 0L0 0Z" fill="#6badd8"></path><path d="M0 25L9 23.5C18 22 36 19 53.8 18.3C71.7 17.7 89.3 19.3 107.2 20.2C125 21 143 21 160.8 20.8C178.7 20.7 196.3 20.3 214.2 19C232 17.7 250 15.3 267.8 14.7C285.7 14 303.3 15 321.2 15.7C339 16.3 357 16.7 366 16.8L375 17L375 0L366 0C357 0 339 0 321.2 0C303.3 0 285.7 0 267.8 0C250 0 232 0 214.2 0C196.3 0 178.7 0 160.8 0C143 0 125 0 107.2 0C89.3 0 71.7 0 53.8 0C36 0 18 0 9 0L0 0Z" fill="#658fc0"></path><path d="M0 10L9 10.3C18 10.7 36 11.3 53.8 11.3C71.7 11.3 89.3 10.7 107.2 10.3C125 10 143 10 160.8 10.8C178.7 11.7 196.3 13.3 214.2 12.5C232 11.7 250 8.3 267.8 6.7C285.7 5 303.3 5 321.2 5C339 5 357 5 366 5L375 5L375 0L366 0C357 0 339 0 321.2 0C303.3 0 285.7 0 267.8 0C250 0 232 0 214.2 0C196.3 0 178.7 0 160.8 0C143 0 125 0 107.2 0C89.3 0 71.7 0 53.8 0C36 0 18 0 9 0L0 0Z" fill="#6272a4"></path></svg>