<svg id="visual" viewBox="0 0 1440 1080" width="1440" height="1080" xmlns="http://www.w3.org/2000/svg" xmlns:xlink="http://www.w3.org/1999/xlink" version="1.1"><rect x="0" y="0" width="1440" height="1080" fill="#001220"></rect><path d="M0 714L34.3 725.7C68.7 737.3 137.3 760.7 205.8 769.2C274.3 777.7 342.7 771.3 411.2 758.3C479.7 745.3 548.3 725.7 617 727.3C685.7 729 754.3 752 823 764.2C891.7 776.3 960.3 777.7 1028.8 768.3C1097.3 759 1165.7 739 1234.2 728C1302.7 717 1371.3 715 1405.7 714L1440 713L1440 1081L1405.7 1081C1371.3 1081 1302.7 1081 1234.2 1081C1165.7 1081 1097.3 1081 1028.8 1081C960.3 1081 891.7 1081 823 1081C754.3 1081 685.7 1081 617 1081C548.3 1081 479.7 1081 411.2 1081C342.7 1081 274.3 1081 205.8 1081C137.3 1081 68.7 1081 34.3 1081L0 1081Z" fill="#8be9fd"></path><path d="M0 823L34.3 815C68.7 807 137.3 791 205.8 781.5C274.3 772 342.7 769 411.2 773.2C479.7 777.3 548.3 788.7 617 789.8C685.7 791 754.3 782 823 773.3C891.7 764.7 960.3 756.3 1028.8 768.5C1097.3 780.7 1165.7 813.3 1234.2 820.8C1302.7 828.3 1371.3 810.7 1405.7 801.8L1440 793L1440 1081L1405.7 1081C1371.3 1081 1302.7 1081 1234.2 1081C1165.7 1081 1097.3 1081 1028.8 1081C960.3 1081 891.7 1081 823 1081C754.3 1081 685.7 1081 617 1081C548.3 1081 479.7 1081 411.2 1081C342.7 1081 274.3 1081 205.8 1081C137.3 1081 68.7 1081 34.3 1081L0 1081Z" fill="#78d9ff"></path><path d="M0 910L34.3 910.5C68.7 911 137.3 912 205.8 896.7C274.3 881.3 342.7 849.7 411.2 835.3C479.7 821 548.3 824 617 823.2C685.7 822.3 754.3 817.7 823 829.5C891.7 841.3 960.3 869.7 1028.8 866.8C1097.3 864 1165.7 830 1234.2 819.5C1302.7 809 1371.3 822 1405.7 828.5L1440 835L1440 1081L1405.7 1081C1371.3 1081 1302.7 1081 1234.2 1081C1165.7 1081 1097.3 1081 1028.8 1081C960.3 1081 891.7 1081 823 1081C754.3 1081 685.7 1081 617 1081C548.3 1081 479.7 1081 411.2 1081C342.7 1081 274.3 1081 205.8 1081C137.3 1081 68.7 1081 34.3 1081L0 1081Z" fill="#74c7ff"></path><path d="M0 935L34.3 938.8C68.7 942.7 137.3 950.3 205.8 943.3C274.3 936.3 342.7 914.7 411.2 908.8C479.7 903 548.3 913 617 912.5C685.7 912 754.3 901 823 906.8C891.7 912.7 960.3 935.3 1028.8 938C1097.3 940.7 1165.7 923.3 1234.2 917.8C1302.7 912.3 1371.3 918.7 1405.7 921.8L1440 925L1440 1081L1405.7 1081C1371.3 1081 1302.7 1081 1234.2 1081C1165.7 1081 1097.3 1081 1028.8 1081C960.3 1081 891.7 1081 823 1081C754.3 1081 685.7 1081 617 1081C548.3 1081 479.7 1081 411.2 1081C342.7 1081 274.3 1081 205.8 1081C137.3 1081 68.7 1081 34.3 1081L0 1081Z" fill="#8bb1ff"></path><path d="M0 1020L34.3 1020.7C68.7 1021.3 137.3 1022.7 205.8 1013.3C274.3 1004 342.7 984 411.2 979.2C479.7 974.3 548.3 984.7 617 984.7C685.7 984.7 754.3 974.3 823 965.8C891.7 957.3 960.3 950.7 1028.8 947.3C1097.3 944 1165.7 944 1234.2 955C1302.7 966 1371.3 988 1405.7 999L1440 1010L1440 1081L1405.7 1081C1371.3 1081 1302.7 1081 1234.2 1081C1165.7 1081 1097.3 1081 1028.8 1081C960.3 1081 891.7 1081 823 1081C754.3 1081 685.7 1081 617 1081C548.3 1081 479.7 1081 411.2 1081C342.7 1081 274.3 1081 205.8 1081C137.3 1081 68.7 1081 34.3 1081L0 1081Z" fill="#bd93f9"></path></svg>