<svg id="visual" viewBox="0 0 375 667" width="375" height="667" xmlns="http://www.w3.org/2000/svg" xmlns:xlink="http://www.w3.org/1999/xlink" version="1.1"><rect x="0" y="0" width="375" height="667" fill="#001220"></rect><path d="M0 440L9 447.3C18 454.7 36 469.3 53.8 474.7C71.7 480 89.3 476 107.2 468C125 460 143 448 160.8 449C178.7 450 196.3 464 214.2 471.5C232 479 250 480 267.8 474.3C285.7 468.7 303.3 456.3 321.2 449.5C339 442.7 357 441.3 366 440.7L375 440L375 668L366 668C357 668 339 668 321.2 668C303.3 668 285.7 668 267.8 668C250 668 232 668 214.2 668C196.3 668 178.7 668 160.8 668C143 668 125 668 107.2 668C89.3 668 71.7 668 53.8 668C36 668 18 668 9 668L0 668Z" fill="#8be9fd"></path><path d="M0 508L9 503C18 498 36 488 53.8 482.2C71.7 476.3 89.3 474.7 107.2 477.2C125 479.7 143 486.3 160.8 487C178.7 487.7 196.3 482.3 214.2 477.2C232 472 250 467 267.8 474.5C285.7 482 303.3 502 321.2 506.5C339 511 357 500 366 494.5L375 489L375 668L366 668C357 668 339 668 321.2 668C303.3 668 285.7 668 267.8 668C250 668 232 668 214.2 668C196.3 668 178.7 668 160.8 668C143 668 125 668 107.2 668C89.3 668 71.7 668 53.8 668C36 668 18 668 9 668L0 668Z" fill="#78d9ff"></path><path d="M0 562L9 562.2C18 562.3 36 562.7 53.8 553.2C71.7 543.7 89.3 524.3 107.2 515.5C125 506.7 143 508.3 160.8 507.7C178.7 507 196.3 504 214.2 511.3C232 518.7 250 536.3 267.8 534.7C285.7 533 303.3 512 321.2 505.5C339 499 357 507 366 511L375 515L375 668L366 668C357 668 339 668 321.2 668C303.3 668 285.7 668 267.8 668C250 668 232 668 214.2 668C196.3 668 178.7 668 160.8 668C143 668 125 668 107.2 668C89.3 668 71.7 668 53.8 668C36 668 18 668 9 668L0 668Z" fill="#74c7ff"></path><path d="M0 577L9 579.3C18 581.7 36 586.3 53.8 582C71.7 577.7 89.3 564.3 107.2 560.8C125 557.3 143 563.7 160.8 563.3C178.7 563 196.3 556 214.2 559.5C232 563 250 577 267.8 578.7C285.7 580.3 303.3 569.7 321.2 566.3C339 563 357 567 366 569L375 571L375 668L366 668C357 668 339 668 321.2 668C303.3 668 285.7 668 267.8 668C250 668 232 668 214.2 668C196.3 668 178.7 668 160.8 668C143 668 125 668 107.2 668C89.3 668 71.7 668 53.8 668C36 668 18 668 9 668L0 668Z" fill="#8bb1ff"></path><path d="M0 630L9 630.3C18 630.7 36 631.3 53.8 625.5C71.7 619.7 89.3 607.3 107.2 604.3C125 601.3 143 607.7 160.8 607.7C178.7 607.7 196.3 601.3 214.2 596.2C232 591 250 587 267.8 585C285.7 583 303.3 583 321.2 589.8C339 596.7 357 610.3 366 617.2L375 624L375 668L366 668C357 668 339 668 321.2 668C303.3 668 285.7 668 267.8 668C250 668 232 668 214.2 668C196.3 668 178.7 668 160.8 668C143 668 125 668 107.2 668C89.3 668 71.7 668 53.8 668C36 668 18 668 9 668L0 668Z" fill="#bd93f9"></path></svg>